<svg width="100" height="100" viewBox="0 0 100 100" fill="none" xmlns="http://www.w3.org/2000/svg">
<rect width="100" height="100" rx="50" fill="white"/>
<path fill-rule="evenodd" clip-rule="evenodd" d="M72.9706 29.6995C71.2018 26.3299 65.3842 27.3883 60.3562 28.7347C38.4994 36.7891 30.7666 53.1572 28.0498 62.9084C27.9154 63.1532 27.8338 63.434 27.8266 63.734C26.7514 67.8716 26.605 70.6292 26.6026 70.7204C26.5618 71.7116 27.3322 72.5492 28.3234 72.59C28.3498 72.5924 28.3762 72.5924 28.4026 72.5924C29.3602 72.5924 30.157 71.8364 30.2002 70.8692C30.2122 70.5764 30.3226 68.5628 31.0018 65.5532C37.021 65.2988 43.081 63.0572 49.033 58.8716C49.4986 58.5452 49.7818 58.0172 49.7986 57.4508C49.8154 56.882 49.561 56.3396 49.117 55.9892L46.3714 53.8148L55.381 52.9316C55.7482 52.8956 56.0938 52.7492 56.3746 52.5092C56.569 52.346 61.1554 48.4196 65.5186 43.8427C72.1546 36.8827 74.4514 32.5219 72.9706 29.6995Z" fill="#335CFF"/>
<path fill-rule="evenodd" clip-rule="evenodd" d="M62.306 68.994H46.922C45.9284 68.994 45.1221 69.8004 45.1221 70.794C45.1221 71.7876 45.9284 72.594 46.922 72.594H62.306C63.2996 72.594 64.106 71.7876 64.106 70.794C64.106 69.8004 63.2996 68.994 62.306 68.994Z" fill="#335CFF"/>
</svg>
